<svg xmlns="http://www.w3.org/2000/svg" width="90" height="90" viewBox="0 0 90 90">
  <g id="Group_304" data-name="Group 304" transform="translate(-1120 -2629)">
    <rect id="Rectangle_225" data-name="Rectangle 225" width="90" height="90" transform="translate(1120 2629)" fill="none"/>
    <g id="closet" transform="translate(1133.896 2638.441)">
      <g id="Group_244" data-name="Group 244" transform="translate(0 0)">
        <g id="Group_243" data-name="Group 243">
          <path id="Path_329" data-name="Path 329" d="M92.966,0H33.2A1.2,1.2,0,0,0,32,1.2V70.529a1.2,1.2,0,0,0,1.2,1.2h59.77a1.2,1.2,0,0,0,1.2-1.2V1.2A1.2,1.2,0,0,0,92.966,0ZM58.3,69.334H34.391V2.391H58.3Zm33.471,0H60.69V62.161H91.77Zm0-9.563H60.69V52.6H91.77Zm-24.959-11.6a1.206,1.206,0,0,1,.845-.35H84.8a1.206,1.206,0,0,1,.845.35,1.195,1.195,0,0,1,0,1.69,1.206,1.206,0,0,1-.845.35H67.657a1.2,1.2,0,0,1-.845-2.041Zm.206-4.782a1.2,1.2,0,0,1,.845-.35H85.008a1.2,1.2,0,1,1,0,2.391H67.862a1.2,1.2,0,0,1-.845-2.041ZM91.77,50.207h-3.6a3.467,3.467,0,0,0-.612-3.467,3.586,3.586,0,0,0-2.552-6.1H67.862A3.566,3.566,0,0,0,65.1,46.5a3.522,3.522,0,0,0-.816,3.706h-3.6V19.127h2.391v3.586a1.2,1.2,0,1,0,2.391,0V19.127h2.391v3.586a1.2,1.2,0,0,0,2.391,0V19.127h2.391v3.586a1.2,1.2,0,0,0,2.391,0V19.127h2.391v3.586a1.2,1.2,0,1,0,2.391,0V19.127h2.391v3.586a1.2,1.2,0,0,0,2.391,0V19.127h3.586a1.2,1.2,0,1,0,0-2.391H84.6v-1.2a1.2,1.2,0,0,0-2.391,0v1.2H79.816v-1.2a1.2,1.2,0,0,0-2.391,0v1.2H75.035v-1.2a1.2,1.2,0,0,0-2.391,0v1.2H70.253v-1.2a1.2,1.2,0,0,0-2.391,0v1.2H65.471v-1.2a1.2,1.2,0,1,0-2.391,0v1.2H60.69V11.954H91.77Zm0-40.644H60.69V2.391H91.77Z" transform="translate(-32)" fill="#333" stroke="#333" stroke-width="1"/>
        </g>
      </g>
      <g id="Group_246" data-name="Group 246" transform="translate(40.644 4.782)">
        <g id="Group_245" data-name="Group 245">
          <path id="Path_330" data-name="Path 330" d="M309.977,32H305.2a1.2,1.2,0,0,0,0,2.391h4.782a1.2,1.2,0,1,0,0-2.391Z" transform="translate(-304 -32)" fill="#333"/>
        </g>
      </g>
      <g id="Group_248" data-name="Group 248" transform="translate(40.644 54.989)">
        <g id="Group_247" data-name="Group 247">
          <path id="Path_331" data-name="Path 331" d="M309.977,368H305.2a1.2,1.2,0,0,0,0,2.391h4.782a1.2,1.2,0,0,0,0-2.391Z" transform="translate(-304 -368)" fill="#333"/>
        </g>
      </g>
      <g id="Group_250" data-name="Group 250" transform="translate(40.644 64.552)">
        <g id="Group_249" data-name="Group 249">
          <path id="Path_332" data-name="Path 332" d="M309.977,432H305.2a1.2,1.2,0,1,0,0,2.391h4.782a1.2,1.2,0,1,0,0-2.391Z" transform="translate(-304 -432)" fill="#333"/>
        </g>
      </g>
      <g id="Group_252" data-name="Group 252" transform="translate(4.782 4.767)">
        <g id="Group_251" data-name="Group 251" transform="translate(0)">
          <path id="Path_333" data-name="Path 333" d="M74.439,32.267a1.2,1.2,0,0,0-1.69-.029l-.029.029-8.368,8.368a1.2,1.2,0,1,0,1.69,1.69l8.368-8.368A1.2,1.2,0,0,0,74.439,32.267Z" transform="translate(-64.002 -31.902)" fill="#333"/>
        </g>
      </g>
      <g id="Group_254" data-name="Group 254" transform="translate(4.767 5.977)">
        <g id="Group_253" data-name="Group 253" transform="translate(0)">
          <path id="Path_334" data-name="Path 334" d="M80.3,40.352a1.2,1.2,0,0,0-1.69,0L64.267,54.7a1.2,1.2,0,0,0,1.661,1.72l.029-.029L80.3,42.042A1.2,1.2,0,0,0,80.3,40.352Z" transform="translate(-63.902 -40.002)" fill="#333"/>
        </g>
      </g>
      <g id="Group_256" data-name="Group 256" transform="translate(20.322 31.081)">
        <g id="Group_255" data-name="Group 255" transform="translate(0)">
          <path id="Path_335" data-name="Path 335" d="M169.2,208a1.2,1.2,0,0,0-1.2,1.2v5.977a1.2,1.2,0,1,0,2.391,0V209.2A1.2,1.2,0,0,0,169.2,208Z" transform="translate(-168 -208)" fill="#333"/>
        </g>
      </g>
    </g>
  </g>
</svg>
