<svg xmlns="http://www.w3.org/2000/svg" width="94.03" height="93" viewBox="0 0 94.03 93">
  <g id="Group_302" data-name="Group 302" transform="translate(-745.5 -2627.508)">
    <rect id="Rectangle_223" data-name="Rectangle 223" width="93" height="93" transform="translate(746 2627.508)" fill="none"/>
    <g id="hotel" transform="translate(746 2632.512)">
      <path id="Path_324" data-name="Path 324" d="M59.179,71.362V52.4a3.329,3.329,0,0,0-1.07-6.484H52.758a3.332,3.332,0,0,0-1.177,6.451,5.16,5.16,0,0,1-5.043,4.1H17.588a5.16,5.16,0,0,1-5.042-4.1,3.332,3.332,0,0,0-1.177-6.45H6.02A3.329,3.329,0,0,0,4.951,52.4V71.362A5.638,5.638,0,0,0,0,76.95V97.11a1.273,1.273,0,0,0,1.272,1.272H6.218A1.273,1.273,0,0,0,7.49,97.11a5.16,5.16,0,0,1,5.151-5.151H51.489a5.156,5.156,0,0,1,5.15,5.151,1.273,1.273,0,0,0,1.272,1.272h4.947a1.272,1.272,0,0,0,1.272-1.272V76.95a5.638,5.638,0,0,0-4.95-5.588Zm-6.421-22.9h5.351a.794.794,0,1,1,0,1.588H52.758a.794.794,0,0,1,0-1.588ZM17.588,59.013h28.95a7.7,7.7,0,0,0,7.589-6.422h2.508V71.317H53.68V69.539a7.094,7.094,0,0,0-7.086-7.086H37.879A7.08,7.08,0,0,0,32.065,65.5a7.08,7.08,0,0,0-5.814-3.047H17.536a7.094,7.094,0,0,0-7.086,7.086v1.778H7.494V52.591H10A7.7,7.7,0,0,0,17.588,59.013Zm-4.6,12.3V69.539A4.548,4.548,0,0,1,17.533,65h8.714a4.548,4.548,0,0,1,4.542,4.542v1.778Zm20.343-1.778A4.548,4.548,0,0,1,37.876,65H46.59a4.548,4.548,0,0,1,4.542,4.542v1.778h-17.8ZM6.02,48.459h5.351a.794.794,0,1,1,0,1.588H6.02a.794.794,0,1,1,0-1.588ZM2.544,76.95a3.093,3.093,0,0,1,3.089-3.089H58.5a3.093,3.093,0,0,1,3.089,3.089v5.044H2.544ZM61.586,95.835H59.078a7.7,7.7,0,0,0-7.589-6.423H12.641a7.7,7.7,0,0,0-7.589,6.423H2.544v-11.3H61.586Z" transform="translate(0 -19.736)" fill="#333" stroke="#333" stroke-width="1"/>
      <path id="Path_325" data-name="Path 325" d="M117.388,74.35h-9.88V69.917h4.952a1.272,1.272,0,0,0,1.244-1.534l-2.18-10.357a1.272,1.272,0,0,0-1.245-1.01h-8.085a1.271,1.271,0,0,0-1.244,1.01L98.77,68.382a1.273,1.273,0,0,0,1.245,1.534h4.952V74.35H95.085a1.271,1.271,0,0,0-1.272,1.272v24.521a1.272,1.272,0,0,0,1.272,1.272h5.769a1.273,1.273,0,0,0,1.272-1.272V89.472h8.221v10.671a1.273,1.273,0,0,0,1.272,1.272h5.769a1.273,1.273,0,0,0,1.272-1.272V75.622A1.272,1.272,0,0,0,117.388,74.35ZM103.226,59.561h6.019l1.646,7.813H101.58Zm-6.87,17.333h19.759V86.928H96.357Zm3.225,21.974H96.357v-9.4h3.225Zm16.535,0h-3.226v-9.4h3.226Z" transform="translate(-25.63 -22.769)" fill="#333" stroke="#333" stroke-width="1"/>
      <path id="Path_326" data-name="Path 326" d="M106.991,92.063h5a1.272,1.272,0,1,0,0-2.544h-5a1.272,1.272,0,0,0,0,2.544Z" transform="translate(-28.883 -31.649)" fill="#333"/>
      <path id="Path_327" data-name="Path 327" d="M40.105,31.245A10.675,10.675,0,1,0,29.431,20.57,10.675,10.675,0,0,0,40.105,31.245Zm0-18.806a8.131,8.131,0,1,1-8.131,8.131,8.132,8.132,0,0,1,8.131-8.131Z" transform="translate(-8.041 -9.895)" fill="#333" stroke="#333" stroke-width="1"/>
      <path id="Path_328" data-name="Path 328" d="M45.267,26.184a1.272,1.272,0,1,0,1.8-1.8l-2.154-2.154V19.168a1.272,1.272,0,1,0-2.544,0v3.588a1.273,1.273,0,0,0,.373.9Z" transform="translate(-11.575 -12.081)" fill="#333"/>
    </g>
  </g>
</svg>
