<svg xmlns="http://www.w3.org/2000/svg" width="270.445" height="98.02" viewBox="0 0 270.445 98.02">
  <g id="Group_270" data-name="Group 270" transform="translate(-3718 -1543.416)">
    <path id="Path_312" data-name="Path 312" d="M16.619-120.1q-1.315,0-1.62.667a8.073,8.073,0,0,0-.429,1.944,19.372,19.372,0,0,0-.2,2.63,1.029,1.029,0,0,0,.457.972,3.768,3.768,0,0,0,1.715.267,2.043,2.043,0,0,0,1.239-.3,1.672,1.672,0,0,0,.553-1.029q.438-2.078,1.792-2.078,2.325,0,2.325,5.566a10.27,10.27,0,0,1-1.01,5.185,1.877,1.877,0,0,1-1.677,1.01q-1.125,0-1.3-1.506a6.457,6.457,0,0,0-.238-1.372,1.913,1.913,0,0,0-.543-.762,2.577,2.577,0,0,0-1.83-.591,1.658,1.658,0,0,0-1.163.305,1.557,1.557,0,0,0-.267,1.163q0,.153-.019,1.773,0,3.3.686,4.022a1.106,1.106,0,0,0,.467.372,9.275,9.275,0,0,0,1.248.238,1.294,1.294,0,0,1,.839.515,1.593,1.593,0,0,1,.343,1.01q0,1.468-1.715,1.887a31.629,31.629,0,0,1-6.957.591,21.324,21.324,0,0,1-5.413-.457,2.135,2.135,0,0,1-1.086-.762,1.972,1.972,0,0,1-.419-1.22,1.685,1.685,0,0,1,.61-1.353,7.186,7.186,0,0,1,1.048-.477,2.192,2.192,0,0,0,1.277-1.944,98.581,98.581,0,0,0,.343-10.693,26.62,26.62,0,0,0-.248-4.67,2.03,2.03,0,0,0-1.2-1.487,4.154,4.154,0,0,1-1.248-.734,1.274,1.274,0,0,1-.3-.905,1.657,1.657,0,0,1,.82-1.4,3.487,3.487,0,0,1,2.02-.562q.762,0,2.23.114,3.107.248,7.434.248a72.558,72.558,0,0,0,9.321-.381,4.575,4.575,0,0,1,.5-.038,1.684,1.684,0,0,1,1.277.762,7.471,7.471,0,0,1,1.677,4.727,2.977,2.977,0,0,1-.553,1.887,1.753,1.753,0,0,1-1.449.705,1.624,1.624,0,0,1-1.01-.267,21.648,21.648,0,0,1-1.754-1.868,3.97,3.97,0,0,0-2.068-1.3A24.735,24.735,0,0,0,16.619-120.1Zm39.78,5.6v4.651a19.69,19.69,0,0,1-.629,5.966q-1.353,3.7-5.947,5.356a18.04,18.04,0,0,1-6.29,1.029q-6.119,0-9.8-2.916a7.527,7.527,0,0,1-2.478-3.317,16.721,16.721,0,0,1-.686-5.451q0-1.391.1-4.575.057-2.249.057-2.973a6.833,6.833,0,0,0-.238-2.192,2.585,2.585,0,0,0-1.039-1.144,2.267,2.267,0,0,1-1.258-1.83,1.724,1.724,0,0,1,.639-1.315,3.5,3.5,0,0,1,1.687-.781,25.574,25.574,0,0,1,4.956-.419,23.907,23.907,0,0,1,5.223.477q2.04.457,2.04,2.078a1.556,1.556,0,0,1-.591,1.277,8.9,8.9,0,0,1-1.144.591,1.475,1.475,0,0,0-.829.972,8.685,8.685,0,0,0-.219,2.325q0,1.658-.152,7.167a6.182,6.182,0,0,0,1.773,4.994,5.554,5.554,0,0,0,3.927,1.41,6.611,6.611,0,0,0,2.764-.562,4.361,4.361,0,0,0,1.887-1.534,4.489,4.489,0,0,0,.705-1.658,12.831,12.831,0,0,0,.191-2.5v-4.193a50,50,0,0,0-.276-5.652,1.936,1.936,0,0,0-1.229-1.306,4.725,4.725,0,0,1-1.353-.8,1.217,1.217,0,0,1-.362-.9,1.773,1.773,0,0,1,1.363-1.668,13.207,13.207,0,0,1,4.374-.524,12.831,12.831,0,0,1,4.279.515,1.739,1.739,0,0,1,1.325,1.639,1.237,1.237,0,0,1-.229.82,5.393,5.393,0,0,1-1.2.82,2.1,2.1,0,0,0-1.153,1.229A43.82,43.82,0,0,0,56.4-114.5Zm16.526,5.547q-.724,0-.924.438a6.243,6.243,0,0,0-.2,2.04,18.086,18.086,0,0,0,.3,3.774,1.353,1.353,0,0,0,.286.591,3.162,3.162,0,0,0,.724.515,1.873,1.873,0,0,1,1.144,1.658q0,1.258-1.592,1.782a19.233,19.233,0,0,1-5.385.524q-7.052,0-7.053-2.669a1.184,1.184,0,0,1,.21-.734,4.332,4.332,0,0,1,.953-.772,2.821,2.821,0,0,0,1.134-1.306,9.578,9.578,0,0,0,.41-2.6q.1-1.353.1-9.7a15.831,15.831,0,0,0-.267-3.6,2.133,2.133,0,0,0-1.144-1.391,3.568,3.568,0,0,1-1.125-.734,1.286,1.286,0,0,1-.286-.867,1.655,1.655,0,0,1,.543-1.229,3.317,3.317,0,0,1,1.515-.772,9.487,9.487,0,0,1,2.249-.21q.629,0,3.145.191.477.038,1.506.038,1.715,0,4.575-.229,1.811-.133,2.535-.133a11.085,11.085,0,0,1,6.748,1.963,5.769,5.769,0,0,1,2.4,4.918,6.225,6.225,0,0,1-.839,3.193,5.372,5.372,0,0,1-2.306,2.163q-.61.305-.61.724,0,.553.934.9a5.575,5.575,0,0,1,2.935,2.192,11.4,11.4,0,0,1,1.334,4.5,3.45,3.45,0,0,0,.5,1.63,3.4,3.4,0,0,0,1.506.715,1.148,1.148,0,0,1,.61.486,1.462,1.462,0,0,1,.248.829,1.966,1.966,0,0,1-.457,1.191,3.155,3.155,0,0,1-1.182.943,10.6,10.6,0,0,1-4.384.743q-3.717,0-5.318-1.963a7.758,7.758,0,0,1-1.229-2.211,38.515,38.515,0,0,1-1.191-4.155,5.951,5.951,0,0,0-1.115-2.554A2.657,2.657,0,0,0,72.924-108.949Zm-1.106-9.721-.21,4.441v.172a1.466,1.466,0,0,0,.2.915,1.072,1.072,0,0,0,.81.229,3.091,3.091,0,0,0,2.44-.867,4.145,4.145,0,0,0,.762-2.773q0-3.679-2.611-3.679a1.35,1.35,0,0,0-1.048.343A1.993,1.993,0,0,0,71.819-118.67Zm29.43-4.441,9.492,8.311a3.915,3.915,0,0,0,1.925,1.163q.991,0,.991-2.116a12.365,12.365,0,0,0-.286-3.278,2.18,2.18,0,0,0-1.2-1.315,2.835,2.835,0,0,1-1.048-.772,1.726,1.726,0,0,1-.3-1.058q0-1.6,2.192-2.059a17.3,17.3,0,0,1,3.126-.191,15.491,15.491,0,0,1,3.984.343q1.754.534,1.754,2.02a2.015,2.015,0,0,1-1.43,1.868,3.054,3.054,0,0,0-.782.438,1.529,1.529,0,0,0-.362.572,14.778,14.778,0,0,0-.534,4.765v6.214q0,1.43.019,3.907a19.346,19.346,0,0,1-.4,4.841q-.515,1.849-1.868,1.849a2,2,0,0,1-1.02-.248A10.366,10.366,0,0,1,114.077-99l-11.3-10.121a3.321,3.321,0,0,0-1.963-1.067q-1.163,0-1.163,3.221a14.6,14.6,0,0,0,.3,3.622,2.279,2.279,0,0,0,1.21,1.43q1.277.629,1.277,1.639,0,2.649-5.7,2.649a9.5,9.5,0,0,1-3.993-.677,2.1,2.1,0,0,1-1.42-1.916,1.5,1.5,0,0,1,.267-.972,5.054,5.054,0,0,1,1.2-.877,2.437,2.437,0,0,0,1.086-1.887,58.041,58.041,0,0,0,.324-7.072,32.05,32.05,0,0,0-.572-7.167,3.231,3.231,0,0,0-.534-1.22,3.119,3.119,0,0,0-1.067-.762,3.665,3.665,0,0,1-1.191-.82,1.468,1.468,0,0,1-.334-.972q0-1.83,3.145-2.306a30.684,30.684,0,0,1,3.736-.152,7.462,7.462,0,0,1,2.221.238A5.3,5.3,0,0,1,101.249-123.111Zm30.078-1.315a21.074,21.074,0,0,1,4.1.381q2.592.515,2.592,2.192a1.179,1.179,0,0,1-.257.829,5.566,5.566,0,0,1-1.306.81,2.484,2.484,0,0,0-1.153,1.925,38.655,38.655,0,0,0-.276,5.794,63.2,63.2,0,0,0,.362,9.016,1.86,1.86,0,0,0,.41.848,3.507,3.507,0,0,0,.963.639,1.8,1.8,0,0,1,1.258,1.658q0,1.525-2.325,2.1a26.554,26.554,0,0,1-6.157.61q-6.214,0-6.214-2.364,0-.858,1.22-1.6a2.226,2.226,0,0,0,1.106-1.563,71.769,71.769,0,0,0,.362-9.225,23.677,23.677,0,0,0-.5-6.252,2.825,2.825,0,0,0-1.277-1.41,4.609,4.609,0,0,1-1.048-.858,1.386,1.386,0,0,1-.267-.877,1.476,1.476,0,0,1,.791-1.306,9.027,9.027,0,0,1,2.792-.867A24.53,24.53,0,0,1,131.327-124.426Zm16.125.4H157.5a12.332,12.332,0,0,0,2.954-.438,3.981,3.981,0,0,1,1.01-.152q1.544,0,3,2.287a8.651,8.651,0,0,1,1.458,4.708,2.836,2.836,0,0,1-1.01,2.421,2.963,2.963,0,0,1-1.83.572,2.825,2.825,0,0,1-1.754-.562,5.945,5.945,0,0,1-1.468-1.858,7.345,7.345,0,0,0-.991-1.544,1.194,1.194,0,0,0-.877-.362,1.05,1.05,0,0,0-1.01.591,4.524,4.524,0,0,0-.3,1.944v10.674a6.075,6.075,0,0,0,.343,2.383,2.334,2.334,0,0,0,1.3,1.144,4.4,4.4,0,0,1,1.4.829,1.5,1.5,0,0,1,.372,1.077q0,1.372-1.858,2.04a18.093,18.093,0,0,1-5.709.667,23.279,23.279,0,0,1-7.014-.782q-1.925-.648-1.925-2.1a1.374,1.374,0,0,1,.686-1.22,12.5,12.5,0,0,1,1.353-.457,1.492,1.492,0,0,0,1-.8,8.138,8.138,0,0,0,.448-2.268q.152-1.487.286-4.813t.133-5.766a7.817,7.817,0,0,0-.267-2.44.925.925,0,0,0-.877-.724q-.743,0-1.449,1.067a11.185,11.185,0,0,1-2.1,2.573,3.132,3.132,0,0,1-1.887.743,2.144,2.144,0,0,1-1.7-.772,2.909,2.909,0,0,1-.667-1.973,7.456,7.456,0,0,1,.534-2.6,10.59,10.59,0,0,1,1.43-2.621q1.449-1.944,2.859-1.944a3.953,3.953,0,0,1,.877.114q1.029.21,1.687.286A13.321,13.321,0,0,0,147.452-124.026Zm47.156,9.53v4.651a19.69,19.69,0,0,1-.629,5.966q-1.353,3.7-5.947,5.356a18.04,18.04,0,0,1-6.29,1.029q-6.119,0-9.8-2.916a7.527,7.527,0,0,1-2.478-3.317,16.721,16.721,0,0,1-.686-5.451q0-1.391.1-4.575.057-2.249.057-2.973a6.834,6.834,0,0,0-.238-2.192,2.586,2.586,0,0,0-1.039-1.144,2.267,2.267,0,0,1-1.258-1.83,1.724,1.724,0,0,1,.639-1.315,3.5,3.5,0,0,1,1.687-.781,25.574,25.574,0,0,1,4.956-.419,23.906,23.906,0,0,1,5.223.477q2.04.457,2.04,2.078a1.556,1.556,0,0,1-.591,1.277,8.9,8.9,0,0,1-1.144.591,1.475,1.475,0,0,0-.829.972,8.685,8.685,0,0,0-.219,2.325q0,1.658-.152,7.167a6.182,6.182,0,0,0,1.773,4.994,5.554,5.554,0,0,0,3.927,1.41,6.611,6.611,0,0,0,2.764-.562,4.361,4.361,0,0,0,1.887-1.534,4.489,4.489,0,0,0,.705-1.658,12.83,12.83,0,0,0,.191-2.5v-4.193a50.014,50.014,0,0,0-.276-5.652,1.936,1.936,0,0,0-1.229-1.306,4.726,4.726,0,0,1-1.353-.8,1.217,1.217,0,0,1-.362-.9,1.773,1.773,0,0,1,1.363-1.668,13.207,13.207,0,0,1,4.374-.524,12.831,12.831,0,0,1,4.279.515,1.739,1.739,0,0,1,1.325,1.639,1.237,1.237,0,0,1-.229.82,5.393,5.393,0,0,1-1.2.82,2.1,2.1,0,0,0-1.153,1.229A43.834,43.834,0,0,0,194.609-114.5Zm16.526,5.547q-.724,0-.924.438a6.243,6.243,0,0,0-.2,2.04,18.087,18.087,0,0,0,.3,3.774,1.352,1.352,0,0,0,.286.591,3.162,3.162,0,0,0,.724.515,1.873,1.873,0,0,1,1.144,1.658q0,1.258-1.592,1.782a19.233,19.233,0,0,1-5.385.524q-7.053,0-7.053-2.669a1.184,1.184,0,0,1,.21-.734,4.332,4.332,0,0,1,.953-.772,2.821,2.821,0,0,0,1.134-1.306,9.578,9.578,0,0,0,.41-2.6q.1-1.353.1-9.7a15.83,15.83,0,0,0-.267-3.6,2.133,2.133,0,0,0-1.144-1.391,3.568,3.568,0,0,1-1.125-.734,1.286,1.286,0,0,1-.286-.867,1.655,1.655,0,0,1,.543-1.229,3.317,3.317,0,0,1,1.515-.772,9.487,9.487,0,0,1,2.249-.21q.629,0,3.145.191.477.038,1.506.038,1.715,0,4.575-.229,1.811-.133,2.535-.133a11.085,11.085,0,0,1,6.748,1.963,5.769,5.769,0,0,1,2.4,4.918,6.225,6.225,0,0,1-.839,3.193,5.372,5.372,0,0,1-2.306,2.163q-.61.305-.61.724,0,.553.934.9a5.575,5.575,0,0,1,2.935,2.192,11.4,11.4,0,0,1,1.334,4.5,3.449,3.449,0,0,0,.5,1.63,3.4,3.4,0,0,0,1.506.715,1.148,1.148,0,0,1,.61.486,1.462,1.462,0,0,1,.248.829,1.966,1.966,0,0,1-.457,1.191,3.155,3.155,0,0,1-1.182.943,10.6,10.6,0,0,1-4.384.743q-3.717,0-5.318-1.963a7.758,7.758,0,0,1-1.229-2.211,38.515,38.515,0,0,1-1.191-4.155,5.951,5.951,0,0,0-1.115-2.554A2.657,2.657,0,0,0,211.134-108.949Zm-1.106-9.721-.21,4.441v.172a1.466,1.466,0,0,0,.2.915,1.072,1.072,0,0,0,.81.229,3.091,3.091,0,0,0,2.44-.867,4.145,4.145,0,0,0,.762-2.773q0-3.679-2.611-3.679a1.35,1.35,0,0,0-1.048.343A1.993,1.993,0,0,0,210.029-118.67Zm22.892-5.356h9.8q2.973,0,4.336-.124a13.838,13.838,0,0,0,2.659-.505,2.454,2.454,0,0,1,.629-.114A2.159,2.159,0,0,1,252.1-123.7a6.949,6.949,0,0,1,1.258,4.193,3.241,3.241,0,0,1-.524,1.954,1.687,1.687,0,0,1-1.439.715,1.639,1.639,0,0,1-.982-.257,4.844,4.844,0,0,1-.943-1.153,4.057,4.057,0,0,0-2.125-1.706,14.721,14.721,0,0,0-4.222-.429q-2.192,0-2.669.781a2.549,2.549,0,0,0-.3,1.125q-.048.705-.048,3.6,0,1.144.381,1.42a4.271,4.271,0,0,0,2,.276,1.683,1.683,0,0,0,1.163-.334,1.876,1.876,0,0,0,.457-1.191,8.419,8.419,0,0,1,.276-1.515,1.576,1.576,0,0,1,.524-.715,1.391,1.391,0,0,1,.934-.343,1.625,1.625,0,0,1,1.334.743,5.285,5.285,0,0,1,.677,1.954,15.089,15.089,0,0,1,.276,2.926,11.326,11.326,0,0,1-.934,4.937,1.661,1.661,0,0,1-1.563,1.048,1.05,1.05,0,0,1-.9-.334,3.282,3.282,0,0,1-.381-1.382,2.253,2.253,0,0,0-2.516-2.154,1.237,1.237,0,0,0-1.172.543,4.423,4.423,0,0,0-.315,2.011q0,.9.124,2.316a12.024,12.024,0,0,0,.257,1.878,1.188,1.188,0,0,0,.943.791,11.069,11.069,0,0,0,2.64.219,9.857,9.857,0,0,0,4.308-.734,5.436,5.436,0,0,0,2.364-2.659,4.993,4.993,0,0,1,.963-1.487,1.616,1.616,0,0,1,1.115-.381,1.6,1.6,0,0,1,1.325.7,2.816,2.816,0,0,1,.524,1.744,9.142,9.142,0,0,1-.591,2.859,14.12,14.12,0,0,1-1.449,3.05,3.921,3.921,0,0,1-.724.867,1.156,1.156,0,0,1-.724.219,6.91,6.91,0,0,1-1.048-.114,21.78,21.78,0,0,0-3.259-.286H230.958a2.348,2.348,0,0,1-1.506-.429,1.464,1.464,0,0,1-.534-1.21,1.159,1.159,0,0,1,.229-.8,3.75,3.75,0,0,1,1.048-.629,2.076,2.076,0,0,0,.848-.61,2.717,2.717,0,0,0,.429-1.067,37.908,37.908,0,0,0,.629-7.758q0-7.357-.915-9.283a1.348,1.348,0,0,0-.419-.534,4.018,4.018,0,0,0-.953-.362,1.384,1.384,0,0,1-1.086-1.449,1.748,1.748,0,0,1,.362-1.086,1.7,1.7,0,0,1,.953-.629A15.467,15.467,0,0,1,232.921-124.026Z" transform="translate(3729.022 1738.7)" fill="#20b7ef"/>
    <path id="Path_311" data-name="Path 311" d="M24.831-237.608H21.652q-2.781,0-6.224.265-2.163.176-3,.177a7.9,7.9,0,0,1-4.812-1.368,4.245,4.245,0,0,1-1.854-3.576,3.356,3.356,0,0,1,.817-2.406,5.871,5.871,0,0,1,2.671-1.39,3.716,3.716,0,0,0,2.384-1.435A10.663,10.663,0,0,0,12.6-251.2q.353-3.311.64-12.889t.287-19.025a13.771,13.771,0,0,0-.574-4.944,4.363,4.363,0,0,0-2.693-1.986q-3.046-1.148-3.046-3.929a3.743,3.743,0,0,1,2.1-3.377,11.74,11.74,0,0,1,5.849-1.214q1.236,0,2.913.044,3.708.132,5.385.132,6.312,0,14.258-.4,1.677-.088,4.194-.088,10.109,0,15.979,2.3a24.876,24.876,0,0,1,13.154,11.565,34.877,34.877,0,0,1,3.929,17.039,35.664,35.664,0,0,1-1.457,10,30.757,30.757,0,0,1-3.929,8.674,27.02,27.02,0,0,1-14.125,10.418,35.507,35.507,0,0,1-11.3,1.766l-5.341-.177-4.591-.132Q28.892-237.608,24.831-237.608Zm9.27-47.85v34.166a5.4,5.4,0,0,0,1.192,3.951,5.55,5.55,0,0,0,3.973,1.17q12.89,0,12.89-19.6,0-10.815-3-16.774-3.311-6.577-11.212-6.577a4.217,4.217,0,0,0-2.98.839A3.839,3.839,0,0,0,34.1-285.458Zm101.792,17.348,8.343,17.878a12.638,12.638,0,0,0,1.986,3.244,4.427,4.427,0,0,0,2.428,1.037q3.178.486,3.178,3.222,0,3.222-3.884,4.635t-12.713,1.413a94.344,94.344,0,0,1-14.788-.839,6.773,6.773,0,0,1-3.509-1.611,3.867,3.867,0,0,1-1.3-2.935,2.883,2.883,0,0,1,.684-2.053,6.291,6.291,0,0,1,2.538-1.346q2.075-.706,2.075-2.384,0-2.958-3.576-3.487a84.24,84.24,0,0,0-10.815-.53q-5.871,0-7.019.706a3.566,3.566,0,0,0-1.236,1.589,5.26,5.26,0,0,0-.53,2.207,1.56,1.56,0,0,0,.375,1.258,11.719,11.719,0,0,0,2.45.949q2.693.795,2.693,3.178,0,5.253-12.581,5.253a41.164,41.164,0,0,1-10.506-.971,3.9,3.9,0,0,1-3.09-4.061,3.033,3.033,0,0,1,.684-2.119,6.058,6.058,0,0,1,2.45-1.368,9.484,9.484,0,0,0,4.348-2.847,43.066,43.066,0,0,0,4.216-7.835l6.224-13.64A106.726,106.726,0,0,0,99.63-280.8a25.394,25.394,0,0,0,1.214-7.305,23.27,23.27,0,0,1,.464-5.275,6.632,6.632,0,0,1,1.876-2.891,10.442,10.442,0,0,1,7.769-3.09,12.935,12.935,0,0,1,8.519,3.487Q125.122-291.109,135.893-268.111Zm-30.723,5.562h8.652q2.384,0,2.384-1.059,0-1.457-3.311-7.151a23.326,23.326,0,0,0-2.3-3.487,2.272,2.272,0,0,0-1.677-.883q-1.589,0-2.649,2.957-.177.4-1.28,3.134a24.789,24.789,0,0,0-1.854,5.385Q103.139-262.549,105.17-262.549Zm99.354-21.63L184.262-243.17a16.655,16.655,0,0,1-3.531,5.231,6.291,6.291,0,0,1-4.238,1.435,7.716,7.716,0,0,1-3.8-.927,6.342,6.342,0,0,1-2.008-1.655,18.709,18.709,0,0,1-1.832-3.421L150.8-282.28a16.2,16.2,0,0,0-2.715-4.569,6.311,6.311,0,0,0-3.465-1.611,2.962,2.962,0,0,1-2.649-3.266q0-3.4,4.635-5.231t13.287-1.832q9.005,0,13.243,1.368t4.238,4.238q0,1.854-2.3,3.443-1.766,1.192-1.766,2.251a7.663,7.663,0,0,0,.795,2.781l5.518,12.448q1.192,2.737,2.693,2.737a3.293,3.293,0,0,0,2.6-1.457,31.678,31.678,0,0,0,3.09-5.739q3.487-7.681,4.061-9.071a6.184,6.184,0,0,0,.574-2.141q0-1.5-2.075-2.56-2.3-1.192-2.3-3.046,0-5.253,14.081-5.253,7.019,0,9.91,1.126a3.952,3.952,0,0,1,2.891,3.862q0,3.267-3.8,3.752a8.513,8.513,0,0,0-3.487.883Q206.466-288.151,204.523-284.178Zm20.743-13.684h22.689q6.886,0,10.042-.287a32.047,32.047,0,0,0,6.158-1.17,5.681,5.681,0,0,1,1.457-.265,5,5,0,0,1,4.061,2.472,16.094,16.094,0,0,1,2.913,9.711,7.506,7.506,0,0,1-1.214,4.525,3.908,3.908,0,0,1-3.333,1.655,3.8,3.8,0,0,1-2.273-.6,11.211,11.211,0,0,1-2.185-2.671,9.394,9.394,0,0,0-4.922-3.951q-2.98-.993-9.777-.993-5.076,0-6.18,1.81a5.9,5.9,0,0,0-.684,2.6q-.11,1.633-.11,8.343,0,2.649.883,3.289t4.635.64a3.9,3.9,0,0,0,2.693-.773,4.345,4.345,0,0,0,1.059-2.759,19.509,19.509,0,0,1,.64-3.509,3.649,3.649,0,0,1,1.214-1.655,3.221,3.221,0,0,1,2.163-.795,3.762,3.762,0,0,1,3.09,1.722,12.24,12.24,0,0,1,1.567,4.525,34.942,34.942,0,0,1,.64,6.776,26.23,26.23,0,0,1-2.163,11.433,3.846,3.846,0,0,1-3.62,2.428,2.433,2.433,0,0,1-2.075-.772,7.6,7.6,0,0,1-.883-3.2q-.662-4.988-5.827-4.988a2.865,2.865,0,0,0-2.715,1.258,10.242,10.242,0,0,0-.728,4.657q0,2.075.287,5.363a27.848,27.848,0,0,0,.6,4.348,2.752,2.752,0,0,0,2.185,1.832,25.636,25.636,0,0,0,6.114.508q6.621,0,9.976-1.7a12.59,12.59,0,0,0,5.474-6.158,11.56,11.56,0,0,1,2.229-3.443,3.742,3.742,0,0,1,2.582-.883,3.7,3.7,0,0,1,3.068,1.611,6.522,6.522,0,0,1,1.214,4.039,21.17,21.17,0,0,1-1.368,6.621,32.7,32.7,0,0,1-3.355,7.063,9.079,9.079,0,0,1-1.677,2.009,2.677,2.677,0,0,1-1.677.508,16.022,16.022,0,0,1-2.428-.265,50.421,50.421,0,0,0-7.548-.662H220.719a5.437,5.437,0,0,1-3.487-.993A3.391,3.391,0,0,1,216-241.4a2.683,2.683,0,0,1,.53-1.854,8.681,8.681,0,0,1,2.428-1.457,4.807,4.807,0,0,0,1.964-1.413,6.293,6.293,0,0,0,.993-2.472,87.786,87.786,0,0,0,1.457-17.966q0-17.039-2.119-21.5a3.126,3.126,0,0,0-.971-1.236,9.308,9.308,0,0,0-2.207-.839,3.2,3.2,0,0,1-2.516-3.355,4.049,4.049,0,0,1,.839-2.516,3.923,3.923,0,0,1,2.207-1.457A35.807,35.807,0,0,1,225.266-297.862Z" transform="translate(3712.239 1843)" fill="#fe9338"/>
  </g>
</svg>
