<svg xmlns="http://www.w3.org/2000/svg" width="94" height="94" viewBox="0 0 94 94">
  <g id="Group_301" data-name="Group 301" transform="translate(-546 -2626)">
    <rect id="Rectangle_222" data-name="Rectangle 222" width="94" height="94" transform="translate(546 2626)" fill="none"/>
    <g id="dinner" transform="translate(548.088 2640.725)">
      <g id="Group_258" data-name="Group 258" transform="translate(28.99 22.564)">
        <g id="Group_257" data-name="Group 257">
          <path id="Path_336" data-name="Path 336" d="M172.419,204.459a1.711,1.711,0,1,0,.5,1.211A1.721,1.721,0,0,0,172.419,204.459Z" transform="translate(-169.5 -203.96)" fill="#333"/>
        </g>
      </g>
      <g id="Group_260" data-name="Group 260" transform="translate(59.519 8.204)">
        <g id="Group_259" data-name="Group 259" transform="translate(0 0)">
          <path id="Path_337" data-name="Path 337" d="M374.339,120a1.71,1.71,0,0,0-1.71,1.71v25.306H349.71a1.71,1.71,0,0,0-1.71,1.71v24.289a1.71,1.71,0,0,0,3.421,0V158.643h21.208v14.369a1.71,1.71,0,0,0,3.421,0v-51.3A1.71,1.71,0,0,0,374.339,120Zm-1.71,35.225H351.421v-4.789h21.208Z" transform="translate(-348 -119.997)" fill="#333"/>
        </g>
      </g>
      <g id="Group_262" data-name="Group 262" transform="translate(0 8.204)">
        <g id="Group_261" data-name="Group 261">
          <path id="Path_338" data-name="Path 338" d="M26.339,147.013H3.421V121.707a1.71,1.71,0,0,0-3.421,0v51.3a1.71,1.71,0,0,0,3.421,0V158.643H24.629v14.369a1.71,1.71,0,0,0,3.421,0V148.723A1.711,1.711,0,0,0,26.339,147.013Zm-1.71,8.21H3.421v-4.789H24.629Z" transform="translate(0 -119.997)" fill="#333"/>
        </g>
      </g>
      <g id="Group_264" data-name="Group 264" transform="translate(17.103 0)">
        <g id="Group_263" data-name="Group 263" transform="translate(0 0)">
          <path id="Path_339" data-name="Path 339" d="M147.547,86.386h-1.71V83.368a5.139,5.139,0,0,0,3.421-4.837V73.742a1.71,1.71,0,0,0-1.71-1.71h-6.841a1.71,1.71,0,0,0-1.71,1.71v4.789a5.139,5.139,0,0,0,3.421,4.837v3.018h-7.53a8.507,8.507,0,0,0,1.715-5.131,1.71,1.71,0,0,0-1.71-1.71H118.472a1.71,1.71,0,0,0-1.71,1.71,8.507,8.507,0,0,0,1.715,5.131h-7.53V83.368a5.139,5.139,0,0,0,3.421-4.837V73.742a1.71,1.71,0,0,0-1.71-1.71h-6.841a1.71,1.71,0,0,0-1.71,1.71v4.789a5.139,5.139,0,0,0,3.421,4.837v3.018h-1.71a5.815,5.815,0,0,0,0,11.63h.941a1.71,1.71,0,0,0,0-3.421h-.941a2.394,2.394,0,0,1,0-4.789h41.732a2.394,2.394,0,1,1,0,4.789H119.925a1.71,1.71,0,1,0,0,3.421h1.625v27.3a8.575,8.575,0,0,0-5.344,7.932,1.71,1.71,0,0,0,1.71,1.71h17.573a1.71,1.71,0,0,0,1.71-1.71,8.574,8.574,0,0,0-5.387-7.95V98.016h15.735a5.815,5.815,0,1,0,0-11.63Zm-38.253-6.147-.059,0-.059,0a1.711,1.711,0,0,1-1.652-1.707V75.452h3.421v3.079A1.711,1.711,0,0,1,109.294,80.238Zm18.755,6.147h-2.737a5.14,5.14,0,0,1-4.838-3.421h12.412A5.14,5.14,0,0,1,128.049,86.386Zm16.136-6.147-.059,0-.059,0a1.711,1.711,0,0,1-1.652-1.707V75.452h3.421v3.079A1.711,1.711,0,0,1,144.185,80.238ZM124.971,98.016h3.421V124.64h-3.421Zm8.516,33.522H119.919a5.15,5.15,0,0,1,4.849-3.431h3.869A5.15,5.15,0,0,1,133.486,131.538Z" transform="translate(-100 -72.032)" fill="#333"/>
        </g>
      </g>
    </g>
  </g>
</svg>
