<svg xmlns="http://www.w3.org/2000/svg" width="93" height="93" viewBox="0 0 93 93">
  <g id="Group_300" data-name="Group 300" transform="translate(-359 -2625.496)">
    <rect id="Rectangle_221" data-name="Rectangle 221" width="93" height="93" transform="translate(359 2625.496)" fill="none"/>
    <g id="living-room" transform="translate(366.199 2634.758)">
      <path id="Path_340" data-name="Path 340" d="M78.322,249.87v-3.7A6.175,6.175,0,0,0,72.154,240H51.18a6.161,6.161,0,0,0-4.935,2.473A6.16,6.16,0,0,0,41.311,240H20.337a6.175,6.175,0,0,0-6.169,6.169v3.7A6.175,6.175,0,0,0,8,256.038v22.207a1.234,1.234,0,0,0,1.234,1.234H83.257a1.234,1.234,0,0,0,1.234-1.234V256.038A6.175,6.175,0,0,0,78.322,249.87ZM20.337,277.012h-9.87V256.038a3.706,3.706,0,0,1,3.7-3.7h2.467a3.706,3.706,0,0,1,3.7,3.7Zm-3.7-27.142v-3.7a3.706,3.706,0,0,1,3.7-3.7H41.311a3.706,3.706,0,0,1,3.7,3.7v14.808a6.139,6.139,0,0,0-3.7-1.237h-14.8a6.139,6.139,0,0,0-3.7,1.237v-4.938a6.175,6.175,0,0,0-6.169-6.169Zm28.376,16.038v3.7H22.8v-3.7a3.706,3.706,0,0,1,3.7-3.7h14.8A3.706,3.706,0,0,1,45.012,265.908Zm24.675,11.1H22.8v-4.935H69.686Zm0-7.4H47.479v-3.7a3.706,3.706,0,0,1,3.7-3.7h14.8a3.706,3.706,0,0,1,3.7,3.7Zm0-13.571v4.938a6.139,6.139,0,0,0-3.7-1.237H51.18a6.139,6.139,0,0,0-3.7,1.237V246.169a3.706,3.706,0,0,1,3.7-3.7H72.154a3.706,3.706,0,0,1,3.7,3.7v3.7a6.175,6.175,0,0,0-6.169,6.169Zm12.337,20.973h-9.87V256.038a3.706,3.706,0,0,1,3.7-3.7h2.467a3.706,3.706,0,0,1,3.7,3.7Z" transform="translate(-8 -205.456)" fill="#333" stroke="#333" stroke-width="1"/>
      <path id="Path_342" data-name="Path 342" d="M186.587,40h-33.2A1.383,1.383,0,0,0,152,41.383V63.519a1.383,1.383,0,0,0,1.383,1.383h33.2a1.383,1.383,0,0,0,1.383-1.383V41.383A1.383,1.383,0,0,0,186.587,40ZM159.1,62.135l3.964-4.756,3.964,4.756Zm11.529,0-2.883-3.459,5.636-6.763,7.666,10.222Zm14.57,0h-.692L174.55,48.854a1.383,1.383,0,0,0-2.17-.055l-6.43,7.716-1.819-2.182a1.384,1.384,0,0,0-2.127,0l-6.5,7.8h-.735V42.767H185.2Z" transform="translate(-131.739 -37.646)" fill="#333"/>
      <path id="Path_343" data-name="Path 343" d="M195.7,71.4a3.7,3.7,0,1,0-3.7-3.7A3.7,3.7,0,0,0,195.7,71.4Zm0-4.935a1.234,1.234,0,1,1-1.234,1.234A1.234,1.234,0,0,1,195.7,66.467Z" transform="translate(-163.624 -57.598)" fill="#333"/>
    </g>
  </g>
</svg>
