<svg xmlns="http://www.w3.org/2000/svg" width="93" height="93" viewBox="0 0 93 93">
  <g id="Group_299" data-name="Group 299" transform="translate(-178 -2625)">
    <rect id="Rectangle_220" data-name="Rectangle 220" width="93" height="93" transform="translate(178 2625)" fill="none"/>
    <g id="XMLID_1_" transform="translate(187.169 2635.584)">
      <path id="Path_346" data-name="Path 346" d="M15.035,9.09l27.044,5.372a4.535,4.535,0,0,1,3.653,4.482v31.31a4.6,4.6,0,0,1-4.6,4.6H13.5a1.52,1.52,0,0,0,1.535-1.535V51.789H41.127a1.539,1.539,0,0,0,1.535-1.535V18.944a1.542,1.542,0,0,0-1.2-1.5l-26.43-5.218Z" transform="translate(27.94 18.259)" fill="#333" stroke="#333" stroke-width="1"/>
      <path id="Path_347" data-name="Path 347" d="M24.674,14a1.535,1.535,0,1,1,0,3.07H18.535a1.535,1.535,0,0,1,0-3.07Z" transform="translate(35.184 28.421)" fill="#333"/>
      <path id="Path_348" data-name="Path 348" d="M24.674,17a1.535,1.535,0,1,1,0,3.07H18.535a1.535,1.535,0,0,1,0-3.07Z" transform="translate(35.184 34.63)" fill="#333"/>
      <path id="Path_349" data-name="Path 349" d="M24.674,20a1.535,1.535,0,1,1,0,3.07H18.535a1.535,1.535,0,1,1,0-3.07Z" transform="translate(35.184 40.839)" fill="#333"/>
      <path id="Path_350" data-name="Path 350" d="M16.07,53.51a1.535,1.535,0,1,1-3.07,0V10.535a1.632,1.632,0,0,1,.553-1.2,1.613,1.613,0,0,1,1.289-.307l1.228.246V53.51Z" transform="translate(26.906 18.073)" fill="#333" stroke="#333" stroke-width="1"/>
      <path id="Path_351" data-name="Path 351" d="M20.244,23v1.535a1.52,1.52,0,0,0,1.535,1.535H9.5a1.52,1.52,0,0,0,1.535-1.535V23Z" transform="translate(19.662 47.048)" fill="#333" stroke="#323232" stroke-width="1"/>
      <path id="Path_352" data-name="Path 352" d="M15.674,5a1.535,1.535,0,1,1,0,3.07H9.535a1.535,1.535,0,1,1,0-3.07Z" transform="translate(16.557 9.794)" fill="#333"/>
      <path id="Path_353" data-name="Path 353" d="M17.209,9.535a1.52,1.52,0,0,1-1.535,1.535H9.535a1.535,1.535,0,1,1,0-3.07h6.139A1.52,1.52,0,0,1,17.209,9.535Z" transform="translate(16.557 16.003)" fill="#333"/>
      <path id="Path_354" data-name="Path 354" d="M15.674,11a1.535,1.535,0,1,1,0,3.07H9.535a1.535,1.535,0,1,1,0-3.07Z" transform="translate(16.557 22.212)" fill="#333"/>
      <path id="Path_355" data-name="Path 355" d="M15.674,14a1.535,1.535,0,0,1,0,3.07H9.535a1.535,1.535,0,0,1,0-3.07Z" transform="translate(16.557 28.421)" fill="#333"/>
      <path id="Path_356" data-name="Path 356" d="M12.209,15.535a1.52,1.52,0,0,1-1.535,1.535H4.535a1.535,1.535,0,0,1,0-3.07h6.139A1.52,1.52,0,0,1,12.209,15.535Z" transform="translate(6.209 28.421)" fill="#333"/>
      <path id="Path_357" data-name="Path 357" d="M10.674,5a1.535,1.535,0,0,1,0,3.07H4.535a1.535,1.535,0,1,1,0-3.07Z" transform="translate(6.209 9.794)" fill="#333"/>
      <path id="Path_358" data-name="Path 358" d="M10.674,8a1.535,1.535,0,0,1,0,3.07H4.535a1.535,1.535,0,1,1,0-3.07Z" transform="translate(6.209 16.003)" fill="#333"/>
      <path id="Path_359" data-name="Path 359" d="M10.674,11a1.535,1.535,0,1,1,0,3.07H4.535a1.535,1.535,0,1,1,0-3.07Z" transform="translate(6.209 22.212)" fill="#333"/>
      <path id="Path_360" data-name="Path 360" d="M19.348,21.6a1.539,1.539,0,0,0-1.535-1.535H8.6A1.52,1.52,0,0,0,7.07,21.6V35.418H4V21.6A4.6,4.6,0,0,1,8.6,17h9.209a4.6,4.6,0,0,1,4.6,4.6V35.418h-3.07Z" transform="translate(8.279 34.63)" fill="#333"/>
      <path id="Path_361" data-name="Path 361" d="M7.07,23H22.418v1.535a1.52,1.52,0,0,1-1.535,1.535H5.535A1.52,1.52,0,0,1,4,24.535V23Z" transform="translate(8.279 47.048)" fill="#333" stroke="#323232" stroke-width="1"/>
      <path id="Path_362" data-name="Path 362" d="M5.372.24,39.107,5.367A4.587,4.587,0,0,1,42.975,9.91V27.53l-1.228-.246a1.613,1.613,0,0,0-1.289.307,1.632,1.632,0,0,0-.553,1.2V9.91a1.552,1.552,0,0,0-1.289-1.535L4.881,3.279A.85.85,0,0,0,4.6,3.249a1.448,1.448,0,0,0-.982.368A1.468,1.468,0,0,0,3.07,4.783v63.91A1.539,1.539,0,0,0,4.6,70.229h7.674v1.535A1.52,1.52,0,0,0,13.813,73.3H4.6a4.6,4.6,0,0,1-4.6-4.6V4.783a4.52,4.52,0,0,1,1.627-3.5A4.608,4.608,0,0,1,5.372.24Z" transform="translate(0 -0.181)" fill="#333" stroke="#333" stroke-width="1"/>
    </g>
  </g>
</svg>
