<svg xmlns="http://www.w3.org/2000/svg" width="93" height="93" viewBox="0 0 93 93">
  <g id="Group_303" data-name="Group 303" transform="translate(-943 -2625)">
    <rect id="Rectangle_224" data-name="Rectangle 224" width="93" height="93" transform="translate(943 2625)" fill="none"/>
    <g id="umbrella" transform="translate(946.55 2629.408)">
      <path id="Path_321" data-name="Path 321" d="M2.823,305.412H24v9.882h2.823V298.354a7.265,7.265,0,0,0-3.57-6.892L2.077,280.168A1.412,1.412,0,0,0,0,281.413v33.881H2.823Zm9.121-8.47H3.812l4.517-8.135Zm-.792-8.734,6.494,3.467-3.187,3.985ZM2.823,302.589v-2.823H24v2.823Zm21.053-5.647H17.055l3.132-3.916,1.708.912A4.02,4.02,0,0,1,23.876,296.942ZM6.741,285.855l-3.917,7.052v-9.14Zm0,0" transform="translate(0 -230.592)" fill="#333" stroke="#333" stroke-width="0.5"/>
      <path id="Path_322" data-name="Path 322" d="M354.138,280.2a1.413,1.413,0,0,0-1.392-.035l-21.2,11.307c-1.616.909-3.543,2.841-3.543,6.878V315.3h2.823v-9.882H352V315.3h2.823V281.414a1.411,1.411,0,0,0-.685-1.21Zm-7.645,8.6,4.517,8.135h-8.132Zm-6.136,6.852-3.182-3.985,6.494-3.466ZM352,292.907l-3.917-7.052L352,283.767Zm-19.1,1.046,1.735-.924,3.132,3.915h-6.823A4,4,0,0,1,332.9,293.953Zm-2.077,8.637v-2.823H352v2.823Zm0,0" transform="translate(-270.12 -230.592)" fill="#333" stroke="#333" stroke-width="0.5"/>
      <path id="Path_323" data-name="Path 323" d="M83.646,0c-2.339,0-6,1.9-6,4.235V5.994L49.025,14.172A1.411,1.411,0,0,0,48,15.529v5.647c0,3.953,4.961,7.059,11.294,7.059,4.409,0,8.148-1.5,10.016-3.754,2.1,2.076,6.17,3.494,11.159,3.72V50.822H64.941a1.412,1.412,0,0,0-1.412,1.412V57.88a1.412,1.412,0,0,0,1.412,1.412h6.353L74.823,64v9.412a1.412,1.412,0,0,1-1.412,1.412,4.235,4.235,0,0,0-4.235,4.235V84.7H72V79.056a1.412,1.412,0,0,1,1.412-1.412,4.235,4.235,0,0,0,4.235-4.235V60h8.47V73.409a4.235,4.235,0,0,0,4.235,4.235,1.412,1.412,0,0,1,1.412,1.412V84.7h2.823V79.056a4.235,4.235,0,0,0-4.235-4.235,1.412,1.412,0,0,1-1.412-1.412V63.86l3.167-4.568h6.715a1.412,1.412,0,0,0,1.412-1.412V52.233a1.412,1.412,0,0,0-1.412-1.412H83.293V28.2c4.989-.226,9.06-1.645,11.159-3.72,1.868,2.249,5.608,3.754,10.016,3.754,6.333,0,11.294-3.106,11.294-7.059V15.529a1.411,1.411,0,0,0-1.025-1.357L86.117,5.994C86.117,1.9,85.985,0,83.646,0ZM97.41,56.469H66.353V53.645H97.41ZM59.294,25.411c-3.824,0-6.761-1.31-7.924-2.823H67.218c-1.163,1.513-4.1,2.823-7.924,2.823Zm8.965-10.953a1.41,1.41,0,0,0-.494,1.071v4.235H50.824V16.593l22.411-6.4Zm2.329,1.721L79.581,8.47h.889V19.764H70.588Zm.819,6.409H80.47v2.775c-4.413-.234-7.638-1.483-9.063-2.775ZM80.47,5.647V4.235a1.412,1.412,0,1,1,2.823,0V5.647Zm2.823,19.716V22.587h9.063C90.931,23.879,87.706,25.128,83.293,25.363Zm21.176.048c-3.824,0-6.761-1.31-7.924-2.823h15.847C111.23,24.1,108.293,25.411,104.469,25.411Zm8.47-8.818v3.171H96V15.529a1.41,1.41,0,0,0-.494-1.071l-4.976-4.266Zm-19.764-.415v3.586H83.293V8.47h.889Zm0,0" transform="translate(-39.53 0)" fill="#333" stroke="#333" stroke-width="0.5"/>
    </g>
  </g>
</svg>
